<svg xmlns="http://www.w3.org/2000/svg" version="1.1" xmlns:xlink="http://www.w3.org/1999/xlink" xmlns:svgjs="http://svgjs.dev/svgjs" width="1440" height="560" preserveAspectRatio="none" viewBox="0 0 1440 560"><g mask="url(&quot;#SvgjsMask1056&quot;)" fill="none"><rect width="1440" height="560" x="0" y="0" fill="rgba(255, 220, 238, 1)"></rect><path d="M0,429.499C77.231,411.493,136.195,358.073,206.311,321.026C284.538,279.694,378.077,265.986,436.017,199.122C503.397,121.363,564.819,22.687,553.441,-79.573C542.016,-182.26,449.755,-253.255,377.47,-327.08C309.19,-396.815,241.258,-476.431,145.653,-496.05C52.387,-515.189,-36.565,-462.015,-126.4,-430.479C-211.388,-400.644,-314.634,-391.029,-365.42,-316.639C-415.714,-242.969,-379.125,-144.156,-382.719,-55.027C-385.886,23.499,-401.581,99.072,-385.286,175.954C-365.588,268.891,-358.391,381.956,-279.031,434.18C-199.718,486.373,-92.466,451.057,0,429.499" fill="#ffc4e3"></path><path d="M1440 836.137C1495.957 841.8109999999999 1551.403 835.135 1603.978 815.154 1666.362 791.4449999999999 1735.436 767.793 1770.019 710.715 1805.593 652 1802.099 577.209 1788.972 509.825 1776.249 444.515 1746.507 381.82 1697.234 337.105 1650.706 294.881 1584.349 291.112 1525.057 270.323 1461.903 248.18 1401.883 192.654 1337.519 210.983 1273.1680000000001 229.30900000000003 1255.615 311.797 1209.427 360.207 1160.07 411.938 1073.826 435.43600000000004 1057.054 504.94100000000003 1040.292 574.402 1080.196 648.823 1126.686 703.086 1168.2350000000001 751.582 1237.305 758.975 1296.085 783.937 1344.026 804.296 1388.181 830.883 1440 836.137" fill="#fff4fa"></path></g><defs><mask id="SvgjsMask1056"><rect width="1440" height="560" fill="#ffffff"></rect></mask></defs></svg>